<?xml version="1.0" encoding="UTF-8" standalone="no"?>
<svg id="svg2" xmlns:rdf="http://www.w3.org/1999/02/22-rdf-syntax-ns#" xmlns="http://www.w3.org/2000/svg" xml:space="preserve" height="695.41" width="623.9" version="1.1" xmlns:cc="http://creativecommons.org/ns#" xmlns:dc="http://purl.org/dc/elements/1.1/" viewBox="0 0 623.90436 695.4129"><metadata id="metadata8"><rdf:RDF><cc:Work rdf:about=""><dc:format>image/svg+xml</dc:format><dc:type rdf:resource="http://purl.org/dc/dcmitype/StillImage"/><dc:title/></cc:Work></rdf:RDF></metadata><defs id="defs6"><clipPath id="clipPath16" clipPathUnits="userSpaceOnUse"><path id="path18" d="m0 768h1024v-768h-1024v768z"/></clipPath><clipPath id="clipPath28" clipPathUnits="userSpaceOnUse"><path id="path30" d="m452.11 527.55h100.54v-78.546h-100.54v78.546z"/></clipPath><clipPath id="clipPath32" clipPathUnits="userSpaceOnUse"><path id="path34" d="m452.11 449.5c1.03-0.434 2.659-0.496 5.248-0.496h1.207c4.395 0 8.619 0.191 12.735 0.161 3.93-0.026 7.759 0.08 11.54 0.08 4.749 0 9.405-0.092 14.069 0.04 27.627 0.783 51.295 21.328 55.049 47.765 1.544 10.87 0.459 21.248-2.787 30.424-1.227 0.048-2.457 0.076-3.695 0.076-46.65 0-85.434-33.681-93.366-78.05"/></clipPath><linearGradient id="linearGradient36" gradientUnits="userSpaceOnUse" gradientTransform="matrix(100.54 0 0 -100.54 452.11 488.27)"><stop id="stop38" offset="0"/><stop id="stop40" stop-color="#fff" offset=".88398"/><stop id="stop42" stop-color="#fff" offset="1"/></linearGradient><clipPath id="clipPath74" clipPathUnits="userSpaceOnUse"><path id="path76" d="m354.6 660.97h236.41v-156.05h-236.41v156.05z"/></clipPath><clipPath id="clipPath78" clipPathUnits="userSpaceOnUse"><path id="path80" d="m519.05 658.15c-27.149 2.459-54.151 2.773-74.645 2.773-10.913 0-21.83 0.102-32.756 0-15.448-0.146-34.47 0-50.162 0-6.841 0-6.884-0.088-6.884-7.03 0-9.872 0.004-71.298 0.008-124.29 19.05-12.826 41.134-21.485 64.95-24.689-0.002 23.346-0.072 66.432-0.072 83.293 0 6.946 0.018 7.012 7.279 7.012 11.544 0 32.905-0.03 32.905-0.03 14.263 0 29.434-0.313 44.256-1.401 23.466-1.725 44.122-12.906 58.483-29.637 14.119 18.555 24.107 40.421 28.597 64.232-20.609 16.557-45.337 27.361-71.959 29.766"/></clipPath><linearGradient id="linearGradient82" gradientUnits="userSpaceOnUse" gradientTransform="matrix(236.41 0 0 -236.41 354.6 582.95)"><stop id="stop84" stop-color="#8cd7dd" offset="0"/><stop id="stop86" stop-color="#8cd7dd" offset=".11602"/><stop id="stop88" stop-color="#fff" offset="1"/></linearGradient><clipPath id="clipPath108" clipPathUnits="userSpaceOnUse"><path id="path110" d="m451.8 421.49h96.093v-68.754h-96.093v68.754z"/></clipPath><clipPath id="clipPath112" clipPathUnits="userSpaceOnUse"><path id="path114" d="m522.77 414.76c-0.221 0.442-0.429 0.867-0.628 1.264-3.069 5.979-3.007 6.032-9.117 4.886-0.439-0.084-0.867-0.159-1.3-0.239-3.056-0.543-5.996-0.928-8.928-1.15-4.669-0.358-9.692-1.219-15.803-1.219-4.562 0-9.156-0.089-13.795 0-4.838 0.097-12.008 0-16.009 0-2.771 0-4.407-0.021-5.385-0.524 4.313-27.304 20.274-50.736 42.638-65.042 9.34 0.365 17.946 0.961 23.163 1.935 7.269 1.352 14.812 2.387 22.213 4.54 0 0 2.025 0.561 2.689 0.783 6.451 2.175 6.451 2.268 3.448 8.533-5.584 11.678-17.735 35.408-23.186 46.233"/></clipPath><linearGradient id="linearGradient116" gradientUnits="userSpaceOnUse" gradientTransform="matrix(96.093 0 0 -96.093 451.8 387.12)"><stop id="stop118" offset="0"/><stop id="stop120" stop-color="#fff" offset=".88398"/><stop id="stop122" stop-color="#fff" offset="1"/></linearGradient><clipPath id="clipPath142" clipPathUnits="userSpaceOnUse"><path id="path144" d="m357.32 660.97h292.02v-228.38h-292.02v228.38z"/></clipPath><clipPath id="clipPath146" clipPathUnits="userSpaceOnUse"><path id="path148" d="m519.05 658.15c-27.149 2.459-54.151 2.773-74.645 2.773-10.913 0-21.83 0.102-32.756 0-15.448-0.146-34.47 0-50.162 0-1.978 0-3.167-0.008-4.172-0.187 0.05-60.7 23.68-115.85 62.68-156.72v0.098c0 23.169-0.291 67.023-0.291 84.059 0 6.946-0.092 7.028 7.169 7.028 11.545 0 32.851-0.021 32.851-0.021 14.263 0 29.407-0.309 44.228-1.397 45.237-3.325 80.079-41.74 79.35-87.454-0.403-25.434-11.221-49.208-29.73-65.533-0.322-0.287-0.653-0.566-0.984-0.849-0.142-0.119-0.29-0.238-0.436-0.366-2.119-1.859-3.343-2.935-3.815-3.996 12.08-1.974 24.478-3.003 37.117-3.003 16.189 0 31.984 1.688 47.223 4.892 10.616 20.89 16.474 44.042 16.652 67.697 0.588 77.802-57.866 146.43-130.28 152.98"/></clipPath><linearGradient id="linearGradient150" gradientUnits="userSpaceOnUse" gradientTransform="matrix(292.02 0 0 -292.02 357.32 546.78)"><stop id="stop152" stop-color="#8cd7dd" offset="0"/><stop id="stop154" stop-color="#8cd7dd" offset=".11602"/><stop id="stop156" stop-color="#fff" offset="1"/></linearGradient><clipPath id="clipPath252" clipPathUnits="userSpaceOnUse"><path id="path254" d="m334.42 224.67h68.578v-12.67h-68.578v12.67z"/></clipPath><clipPath id="clipPath256" clipPathUnits="userSpaceOnUse"><path id="path258" d="m403 224.67c-56 0-68.58-12.67-68.58-12.67h68.578v12.67z"/></clipPath><linearGradient id="linearGradient260" gradientUnits="userSpaceOnUse" gradientTransform="matrix(68.578 0 0 -68.578 334.42 218.33)"><stop id="stop262" offset="0"/><stop id="stop264" stop-color="#fff" offset=".88398"/><stop id="stop266" stop-color="#fff" offset="1"/></linearGradient><clipPath id="clipPath286" clipPathUnits="userSpaceOnUse"><path id="path288" d="m480.26 224.67h136.74v-12.67h-136.74v12.67z"/></clipPath><clipPath id="clipPath290" clipPathUnits="userSpaceOnUse"><path id="path292" d="m617 224.67c-129 0-136.74-12.67-136.74-12.67h136.74v12.67z"/></clipPath><linearGradient id="linearGradient294" gradientUnits="userSpaceOnUse" gradientTransform="matrix(136.74 0 0 -136.74 480.26 218.33)"><stop id="stop296" offset="0"/><stop id="stop298" stop-color="#fff" offset=".88398"/><stop id="stop300" stop-color="#fff" offset="1"/></linearGradient><clipPath id="clipPath320" clipPathUnits="userSpaceOnUse"><path id="path322" d="m647.33 224.67h101.67v-12.67h-101.67v12.67z"/></clipPath><clipPath id="clipPath324" clipPathUnits="userSpaceOnUse"><path id="path326" d="m749 224.67c-97 0-101.67-12.67-101.67-12.67h101.67v12.67z"/></clipPath><linearGradient id="linearGradient328" gradientUnits="userSpaceOnUse" gradientTransform="matrix(101.67 0 0 -101.67 647.33 218.33)"><stop id="stop330" offset="0"/><stop id="stop332" stop-color="#fff" offset=".88398"/><stop id="stop334" stop-color="#fff" offset="1"/></linearGradient></defs><g id="g10" transform="matrix(1.25 0 0 -1.25 -317.77 826.21)"><g id="g12"><g id="g14" clip-path="url(#clipPath16)"><g id="g20" transform="translate(457.36 449)"><path id="path22" d="m0 0h1.207c4.395 0 8.618 0.191 12.734 0.161 3.931-0.026 7.76 0.08 11.54 0.08 4.749 0 9.406-0.093 14.07 0.04 27.627 0.783 51.295 21.328 55.049 47.765 4.426 31.163-12.695 58.317-40.709 64.548-11.996 2.666-24.408 2.777-36.412 2.896-5.262 0.054-17.131-0.006-17.848-0.006-6.765 0-6.992-0.121-6.992-6.948v-101.12c0-6.995 0.42-7.41 7.361-7.41" fill="#b4bdc0"/></g><g id="g24"><g id="g44"><g id="g46" opacity=".10001" clip-path="url(#clipPath28)"><g id="g48"><g id="g50" clip-path="url(#clipPath32)"><g id="g52"><g id="g54"><path id="path56" fill="url(#linearGradient36)" d="m452.11 449.5c1.03-0.434 2.659-0.496 5.248-0.496h1.207c4.395 0 8.619 0.191 12.735 0.161 3.93-0.026 7.759 0.08 11.54 0.08 4.749 0 9.405-0.092 14.069 0.04 27.627 0.783 51.295 21.328 55.049 47.765 1.544 10.87 0.459 21.248-2.787 30.424-1.227 0.048-2.457 0.076-3.695 0.076-46.65 0-85.434-33.681-93.366-78.05"/></g></g></g></g></g></g></g><g id="g58" transform="translate(519.05 658.15)"><path id="path60" d="m0 0c-27.149 2.459-54.151 2.772-74.646 2.772-10.913 0-21.829 0.103-32.754 0-15.45-0.145-34.472 0-50.163 0-6.841 0-6.885-0.087-6.885-7.03 0-15.621 0.013-160.56 0.013-196.64 0-7.172 0.075-7.251 7.07-7.251h50.848c6.973 0 7.018 0.065 7.018 7.065 0 11.743 0.009 47.019 0.009 47.019 0 23.169-0.072 67.04-0.072 84.076 0 6.946 0.018 7.037 7.279 7.037 11.545 0 32.905-0.017 32.905-0.017 14.264 0 29.435-0.307 44.256-1.394 45.237-3.325 80.093-41.739 79.363-87.453-0.402-25.434-11.213-49.208-29.722-65.533-0.323-0.287-0.65-0.566-0.982-0.848-0.141-0.119-0.287-0.238-0.433-0.366-5.027-4.41-5.027-4.41-1.861-10.273 0.114-0.212 0.433-0.866 0.433-0.866l22.722-45.285s0.35-0.753 0.496-0.987c3.683-5.973 3.771-5.88 9.113-2.065 0.301 0.217 1.202 0.88 1.202 0.88l0.686 0.504c39.958 29.107 64.024 75.348 64.387 123.68 0.57 77.794-57.884 146.43-130.3 152.97" fill="#01a799"/></g><g id="g62" transform="translate(420.23 354.59)"><path id="path64" d="m0 0c0-1.217-0.971-2.201-2.171-2.201h-61.84c-1.197 0-2.171 0.984-2.171 2.201v62.221c0 1.217 0.974 2.203 2.171 2.203h61.84c1.2 0 2.171-0.986 2.171-2.203v-62.221z" fill="#01a698"/></g><g id="g66" transform="translate(522.77 414.76)"><path id="path68" d="m0 0c-0.221 0.442-0.429 0.866-0.628 1.265-3.068 5.978-3.007 6.031-9.117 4.885-0.438-0.084-0.866-0.159-1.3-0.239-3.056-0.543-5.996-0.928-8.928-1.149-4.669-0.359-9.692-1.22-15.802-1.22-4.563 0-9.158-0.089-13.795 0-4.838 0.098-12.186 0-16.188 0-6.707 0-7.008-0.071-7.008-7.013v-52.038c0-7.039 0.177-7.088 7.079-7.088 14.441 0 47.652 0.124 60.435 2.508 7.269 1.353 14.856 2.387 22.258 4.54 0 0 2.047 0.562 2.71 0.783 6.451 2.175 6.462 2.268 3.46 8.534-5.585 11.677-17.725 35.408-23.176 46.232" fill="#b4bdc0"/></g><g id="g70"><g id="g90"><g id="g92" opacity=".14999" clip-path="url(#clipPath74)"><g id="g94"><g id="g96" clip-path="url(#clipPath78)"><g id="g98"><g id="g100"><path id="path102" fill="url(#linearGradient82)" d="m519.05 658.15c-27.149 2.459-54.151 2.773-74.645 2.773-10.913 0-21.83 0.102-32.756 0-15.448-0.146-34.47 0-50.162 0-6.841 0-6.884-0.088-6.884-7.03 0-9.872 0.004-71.298 0.008-124.29 19.05-12.826 41.134-21.485 64.95-24.689-0.002 23.346-0.072 66.432-0.072 83.293 0 6.946 0.018 7.012 7.279 7.012 11.544 0 32.905-0.03 32.905-0.03 14.263 0 29.434-0.313 44.256-1.401 23.466-1.725 44.122-12.906 58.483-29.637 14.119 18.555 24.107 40.421 28.597 64.232-20.609 16.557-45.337 27.361-71.959 29.766"/></g></g></g></g></g></g></g><g id="g104"><g id="g124"><g id="g126" opacity=".10001" clip-path="url(#clipPath108)"><g id="g128"><g id="g130" clip-path="url(#clipPath112)"><g id="g132"><g id="g134"><path id="path136" fill="url(#linearGradient116)" d="m522.77 414.76c-0.221 0.442-0.429 0.867-0.628 1.264-3.069 5.979-3.007 6.032-9.117 4.886-0.439-0.084-0.867-0.159-1.3-0.239-3.056-0.543-5.996-0.928-8.928-1.15-4.669-0.358-9.692-1.219-15.803-1.219-4.562 0-9.156-0.089-13.795 0-4.838 0.097-12.008 0-16.009 0-2.771 0-4.407-0.021-5.385-0.524 4.313-27.304 20.274-50.736 42.638-65.042 9.34 0.365 17.946 0.961 23.163 1.935 7.269 1.352 14.812 2.387 22.213 4.54 0 0 2.025 0.561 2.689 0.783 6.451 2.175 6.451 2.268 3.448 8.533-5.584 11.678-17.735 35.408-23.186 46.233"/></g></g></g></g></g></g></g><g id="g138"><g id="g158"><g id="g160" opacity=".14999" clip-path="url(#clipPath142)"><g id="g162"><g id="g164" clip-path="url(#clipPath146)"><g id="g166"><g id="g168"><path id="path170" fill="url(#linearGradient150)" d="m519.05 658.15c-27.149 2.459-54.151 2.773-74.645 2.773-10.913 0-21.83 0.102-32.756 0-15.448-0.146-34.47 0-50.162 0-1.978 0-3.167-0.008-4.172-0.187 0.05-60.7 23.68-115.85 62.68-156.72v0.098c0 23.169-0.291 67.023-0.291 84.059 0 6.946-0.092 7.028 7.169 7.028 11.545 0 32.851-0.021 32.851-0.021 14.263 0 29.407-0.309 44.228-1.397 45.237-3.325 80.079-41.74 79.35-87.454-0.403-25.434-11.221-49.208-29.73-65.533-0.322-0.287-0.653-0.566-0.984-0.849-0.142-0.119-0.29-0.238-0.436-0.366-2.119-1.859-3.343-2.935-3.815-3.996 12.08-1.974 24.478-3.003 37.117-3.003 16.189 0 31.984 1.688 47.223 4.892 10.616 20.89 16.474 44.042 16.652 67.697 0.588 77.802-57.866 146.43-130.28 152.98"/></g></g></g></g></g></g></g><g id="g172" transform="translate(390.66 149.64)"><path id="path174" d="m0 0c3.815 0 7.099-2.929 7.099-6.745s-3.195-6.922-7.099-6.922c-3.728 0-7.1 2.929-7.1 6.745s3.195 6.922 7.1 6.922" fill="#b4bdc0"/></g><g id="g176" transform="translate(305.36 293.56)"><path id="path178" d="m0 0c-3.81 4.952-10.095 7.714-16.285 7.714-15.143 0-25.143-12.095-25.143-27.428 0-14.19 9.429-26.285 25.143-26.285 7.714 0 13.618 3.429 17.618 9.048l7.714-5.81c-2-2.761-10.095-11.809-25.524-11.809-21.427 0-34.665 17.904-34.665 34.856 0 20.951 14.381 35.998 35.142 35.998 8.857 0 18.19-3.333 23.619-10.475l-7.619-5.809z" fill="#24b3a7"/></g><path id="path180" d="m346.78 285.85h8.571v-45.141h-8.571v45.141zm7.905 22.285h12.19l-14.19-13.714h-7.905l9.905 13.714z" fill="#24b3a7"/><g id="g182" transform="translate(368.97 285.85)"><path id="path184" d="m0 0h8.571v-6.952h0.191c2.19 4.762 7.904 8.096 14.856 8.096 8.762 0 16.381-5.239 16.381-17.238v-29.047h-8.572v26.666c0 8.476-4.857 11.619-10.285 11.619-7.143 0-12.571-4.572-12.571-15.047v-23.238h-8.571v45.141z" fill="#24b3a7"/></g><path id="path186" d="m422.59 285.85h8.571v-45.141h-8.571v45.141zm4.285 22.475c3.429 0 6.285-2.857 6.285-6.285 0-3.429-2.856-6.286-6.285-6.286-3.428 0-6.285 2.857-6.285 6.286 0 3.428 2.857 6.285 6.285 6.285" fill="#24b3a7"/><g id="g188" transform="translate(477.06 273.85)"><path id="path190" d="m0 0c-3.143 3.333-6.476 5.047-11.237 5.047-9.333 0-14.096-7.524-14.096-15.999 0-8.476 5.715-15.333 14.571-15.333 4.762 0 8.095 1.715 10.952 5.048l6.096-6.095c-4.476-4.953-10.571-6.953-17.142-6.953-13.905 0-23.619 9.619-23.619 23.523 0 13.905 9.524 23.809 23.619 23.809 6.571 0 12.856-2.285 17.332-7.143l-6.476-5.904z" fill="#24b3a7"/></g><g id="g192" transform="translate(515.06 262.42)"><path id="path194" d="m0 0c-8.096 0-17.999-1.43-17.999-8.667 0-5.143 3.809-7.333 9.714-7.333 9.523 0 12.856 7.047 12.856 13.143v2.857h-4.571zm-24.189 17.903c4.761 4.476 11.618 6.667 17.903 6.667 13.333 0 18.856-7.238 18.856-15.048v-23.046c0-3.143 0.096-5.809 0.382-8.19h-7.619c-0.19 2.285-0.286 4.571-0.286 6.857h-0.19c-3.81-5.809-8.953-8-15.809-8-8.381 0-15.618 4.761-15.618 13.523 0 11.619 11.142 15.619 24.855 15.619h6.286v1.904c0 4.667-3.428 9.524-10.761 9.524-6.572 0-9.714-2.762-12.857-5.143l-5.142 5.333z" fill="#24b3a7"/></g><g id="g196" transform="translate(568.78 308.13)"><path id="path198" d="m0 0h42.379v-8.571h-33.237v-21.142h30.952v-8.571h-30.952v-29.142h-9.142v67.426z" fill="#24b3a7"/></g><g id="g200" transform="translate(643.15 308.13)"><path id="path202" d="m0 0h12.189l-14.189-13.714h-7.904l9.904 13.714zm2.477-45.712c-8.096 0-18-1.43-18-8.667 0-5.142 3.809-7.333 9.713-7.333 9.524 0 12.857 7.047 12.857 13.143v2.857h-4.57zm-24.191 17.903c4.762 4.476 11.618 6.667 17.904 6.667 13.333 0 18.857-7.238 18.857-15.047v-23.047c0-3.143 0.096-5.809 0.381-8.19h-7.619c-0.191 2.285-0.286 4.572-0.286 6.857h-0.19c-3.81-5.809-8.952-8-15.81-8-8.379 0-15.618 4.761-15.618 13.523 0 11.619 11.143 15.619 24.857 15.619h6.285v1.905c0 4.667-3.428 9.523-10.762 9.523-6.57 0-9.713-2.762-12.856-5.143l-5.143 5.333z" fill="#24b3a7"/></g><g id="g204" transform="translate(702.96 273.85)"><path id="path206" d="m0 0c-3.144 3.333-6.477 5.047-11.238 5.047-9.333 0-14.095-7.524-14.095-15.999 0-8.476 5.714-15.333 14.571-15.333 4.762 0 8.095 1.715 10.951 5.048l6.096-6.095c-4.476-4.953-10.571-6.953-17.142-6.953-13.905 0-23.619 9.619-23.619 23.523 0 13.905 9.525 23.809 23.619 23.809 6.571 0 12.856-2.285 17.333-7.143l-6.476-5.904z" fill="#24b3a7"/></g><path id="path208" d="m717.25 285.85h8.57v-45.141h-8.57v45.141zm4.285 22.475c3.429 0 6.285-2.857 6.285-6.285 0-3.429-2.856-6.286-6.285-6.286s-6.285 2.857-6.285 6.286c0 3.428 2.856 6.285 6.285 6.285" fill="#24b3a7"/><g id="g210" transform="translate(284.4 148.14)"><path id="path212" d="m0 0c16.664 0 35.378 6.814 35.378 31.297 0 26.021-18.714 31.553-35.378 31.553h-13.586v-62.85h13.586zm-29.59 76.816h32.153c23.714 0 50.12-11.295 50.12-45.39 0-31.79-26.406-45.392-50.12-45.392h-32.153v90.782z" fill="#24b3a7"/></g><g id="g214" transform="translate(349.38 195.57)"><path id="path216" d="m0 0h14.839v-10.185h0.171c3.333 6.984 9.864 12.081 17.94 12.081 1.154 0 2.839-0.096 3.712-0.353v-14.1c-2.037 0.513-3.313 0.641-4.724 0.641-13.843 0-16.517-12.05-16.517-16.536v-32.943h-15.421v61.395z" fill="#24b3a7"/></g><g id="g218" transform="translate(439.78 185.97)"><path id="path220" d="m0 0c9.102 0 19.484 2.082 19.484 13.106 0 9.871-9.742 12.208-18.074 12.208h-14.704v-25.314h13.294zm-29.298 38.99h31.478c17.048 0 33.455-6.807 33.455-26.035 0-13.075-8.075-21.671-20.766-24.49l24.227-40.257h-19.484l-21.022 38.408h-11.884v-38.408h-16.004v90.782z" fill="#24b3a7"/></g><g id="g222" transform="translate(319.3 225)"><path id="path224" d="m0 0c2.104-1 4.093-2.496 5.95-3.871 3.535-2.62 6.6-6.129 9.176-9.129h68.578v13h-83.704z" fill="#b4bdc0"/></g><g id="g226" transform="translate(516.05 145.2)"><path id="path228" d="m0 0c12.178 0 17.817 10.383 17.817 19.996 0 9.614-5.639 19.74-17.817 19.74-12.177 0-17.817-10.126-17.817-19.74 0-9.613 5.64-19.996 17.817-19.996m0 52.299c18.587 0 33.456-12.946 33.456-32.303 0-19.355-14.869-32.814-33.456-32.814-18.586 0-33.455 13.459-33.455 32.814 0 19.357 14.869 32.303 33.455 32.303" fill="#24b3a7"/></g><g id="g230" transform="translate(603.85 178.66)"><path id="path232" d="m0 0c-2.435 3.461-7.69 6.024-12.689 6.024-11.281 0-16.92-10.127-16.92-19.74 0-9.614 5.767-19.74 17.432-19.74 4.743 0 9.998 1.923 12.947 5.512l9.614-9.742c-5.128-5.512-13.588-8.588-22.689-8.588-18.202 0-33.328 12.049-33.328 32.558 0 19.996 14.869 32.559 32.944 32.559 8.972 0 18.33-3.589 23.201-9.614l-10.512-9.229z" fill="#24b3a7"/></g><g id="g234" transform="translate(734.62 162.11)"><path id="path236" d="m0 0h-3.485c-9.742 0-23.457-1.084-23.457-10.185 0-5.896 5.523-7.656 10.779-7.656 10.512 0 16.163 6.06 16.163 15.801v2.04zm0.291-20.076h-0.443c-3.076-5.529-10.383-9.376-19.099-9.376-9.87 0-23.062 4.733-23.062 19.09 0 18.33 23.109 20.884 42.313 20.884v1.539c0 7.562-6.421 11.279-14.112 11.279-6.537 0-12.825-3.076-16.798-7.05l-7.95 9.357c6.922 6.41 16.641 9.743 25.999 9.743 22.048 0 27.409-13.588 27.409-25.894v-37.429h-14.257v7.857z" fill="#24b3a7"/></g><g id="g238" transform="translate(658.45 197.44)"><path id="path240" d="m0 0c-9.101 0-15.758-5.441-18.193-10.441h-0.254v38h-15v-91h15v33.762c0 8.203 4.796 16.535 14.538 16.535 9.87 0 11.462-8.972 11.462-16.279v-34.018h15v38.633c0 12.562-6.53 24.808-22.553 24.808" fill="#24b3a7"/></g><g id="g242" transform="translate(618,224)"><path id="path244" d="m0 0h-148.09c4.695-2 8.203-7 10.343-12h137.75v12z" fill="#b4bdc0"/></g><path id="path246" d="m647 212h103v12h-103v-12z" fill="#b4bdc0"/><g id="g248"><g id="g268"><g id="g270" opacity=".10001" clip-path="url(#clipPath252)"><g id="g272"><g id="g274" clip-path="url(#clipPath256)"><g id="g276"><g id="g278"><path id="path280" fill="url(#linearGradient260)" d="m403 224.67c-56 0-68.58-12.67-68.58-12.67h68.578v12.67z"/></g></g></g></g></g></g></g><g id="g282"><g id="g302"><g id="g304" opacity=".10001" clip-path="url(#clipPath286)"><g id="g306"><g id="g308" clip-path="url(#clipPath290)"><g id="g310"><g id="g312"><path id="path314" fill="url(#linearGradient294)" d="m617 224.67c-129 0-136.74-12.67-136.74-12.67h136.74v12.67z"/></g></g></g></g></g></g></g><g id="g316"><g id="g336"><g id="g338" opacity=".10001" clip-path="url(#clipPath320)"><g id="g340"><g id="g342" clip-path="url(#clipPath324)"><g id="g344"><g id="g346"><path id="path348" fill="url(#linearGradient328)" d="m749 224.67c-97 0-101.67-12.67-101.67-12.67h101.67v12.67z"/></g></g></g></g></g></g></g><path id="path350" d="m324 241h9v67h-9v-67z" fill="#24b3a7"/><path id="path352" d="m740 241h9v67h-9v-67z" fill="#24b3a7"/></g></g><text id="text354" font-size="18.8px" transform="matrix(1 0 0 -1 254.8 104.91)" font-style="italic" font-family="&apos;AvenirNext LT Pro Regular&apos;" fill="#b4bdc0"><tspan id="tspan356" y="0" x="0 16.694401 27.636 41.773602 52.414398 57.152 67.792801 80.8964 95.033997 107.79732 112.53492 117.46052 131.59811 136.33572 149.68372 165.40051 176.69933 187.64091 203.35773 214.65652 225.59811 230.33572 240.97652 254.08012 268.21771">MENS SANA IN CORPORE SANO</tspan></text>
<text id="text358" font-weight="600" font-size="18.8px" transform="matrix(1 0 0 -1 543.47 104.91)" font-family="&apos;AvenirNext LT Pro Regular&apos;" fill="#b4bdc0"><tspan id="tspan360" y="0" x="0 17.333599 28.839199 43.240002 48.579201 61.701599 67.040802 81.742401 94.714401 99.452003 104.7912 119.4928 130.2088 141.7144 156.28439 168.1472 181.4576 195.40907">MEDICINA INTEGRADA</tspan></text>
</g></svg>
