<?xml version="1.0" encoding="UTF-8" standalone="no"?>
<svg
   xmlns:osb="http://www.openswatchbook.org/uri/2009/osb"
   xmlns:dc="http://purl.org/dc/elements/1.1/"
   xmlns:cc="http://creativecommons.org/ns#"
   xmlns:rdf="http://www.w3.org/1999/02/22-rdf-syntax-ns#"
   xmlns:svg="http://www.w3.org/2000/svg"
   xmlns="http://www.w3.org/2000/svg"
   xmlns:xlink="http://www.w3.org/1999/xlink"
   xmlns:sodipodi="http://sodipodi.sourceforge.net/DTD/sodipodi-0.dtd"
   xmlns:inkscape="http://www.inkscape.org/namespaces/inkscape"
   viewBox="0 0 2048 2048"
   height="2048"
   width="2048"
   xml:space="preserve"
   version="1.1"
   id="svg2"
   inkscape:version="0.91 r13725"
   sodipodi:docname="Splash-Screen.svg"><sodipodi:namedview
     pagecolor="#ffffff"
     bordercolor="#666666"
     borderopacity="1"
     objecttolerance="10"
     gridtolerance="10"
     guidetolerance="10"
     inkscape:pageopacity="0"
     inkscape:pageshadow="2"
     inkscape:window-width="1920"
     inkscape:window-height="1028"
     id="namedview181"
     showgrid="false"
     fit-margin-top="0"
     fit-margin-left="0"
     fit-margin-right="0"
     fit-margin-bottom="0"
     inkscape:zoom="1.3435029"
     inkscape:cx="999.9322"
     inkscape:cy="660.00958"
     inkscape:window-x="0"
     inkscape:window-y="0"
     inkscape:window-maximized="1"
     inkscape:current-layer="layer3" /><metadata
     id="metadata8"><rdf:RDF><cc:Work
         rdf:about=""><dc:format>image/svg+xml</dc:format><dc:type
           rdf:resource="http://purl.org/dc/dcmitype/StillImage" /><dc:title /></cc:Work></rdf:RDF></metadata><defs
     id="defs6"><linearGradient
       id="linearGradient5216"
       osb:paint="gradient"><stop
         style="stop-color:#e0e0e0;stop-opacity:0"
         offset="0"
         id="stop5218" /><stop
         style="stop-color:#e0e0e0;stop-opacity:1"
         offset="1"
         id="stop5220" /></linearGradient><clipPath
       id="clipPath16"
       clipPathUnits="userSpaceOnUse"><path
         id="path18"
         d="M 0,768 1024,768 1024,0 0,0 0,768 Z"
         inkscape:connector-curvature="0" /></clipPath><clipPath
       id="clipPath28"
       clipPathUnits="userSpaceOnUse"><path
         id="path30"
         d="m 452.113,527.546 100.54,0 0,-78.546 -100.54,0 0,78.546 z"
         inkscape:connector-curvature="0" /></clipPath><clipPath
       id="clipPath32"
       clipPathUnits="userSpaceOnUse"><path
         id="path34"
         d="m 452.113,449.496 c 1.03,-0.434 2.659,-0.496 5.248,-0.496 l 1.207,0 c 4.395,0 8.619,0.191 12.735,0.161 3.93,-0.026 7.759,0.08 11.54,0.08 4.749,0 9.405,-0.092 14.069,0.04 27.627,0.783 51.295,21.328 55.049,47.765 1.544,10.87 0.459,21.248 -2.787,30.424 -1.227,0.048 -2.457,0.076 -3.695,0.076 -46.65,0 -85.434,-33.681 -93.366,-78.05"
         inkscape:connector-curvature="0" /></clipPath><linearGradient
       id="linearGradient36"
       spreadMethod="pad"
       gradientTransform="matrix(100.54004,0,0,-100.54004,452.11328,488.27344)"
       gradientUnits="userSpaceOnUse"
       y2="0"
       x2="1"
       y1="0"
       x1="0"><stop
         id="stop38"
         offset="0"
         style="stop-opacity:1;stop-color:#000000" /><stop
         id="stop40"
         offset="0.8839779"
         style="stop-opacity:1;stop-color:#ffffff" /><stop
         id="stop42"
         offset="1"
         style="stop-opacity:1;stop-color:#ffffff" /></linearGradient><clipPath
       id="clipPath74"
       clipPathUnits="userSpaceOnUse"><path
         id="path76"
         d="m 354.604,660.972 236.406,0 0,-156.054 -236.406,0 0,156.054 z"
         inkscape:connector-curvature="0" /></clipPath><clipPath
       id="clipPath78"
       clipPathUnits="userSpaceOnUse"><path
         id="path80"
         d="m 519.051,658.153 c -27.149,2.459 -54.151,2.773 -74.645,2.773 -10.913,0 -21.83,0.102 -32.756,0 -15.448,-0.146 -34.47,0 -50.162,0 -6.841,0 -6.884,-0.088 -6.884,-7.03 0,-9.872 0.004,-71.298 0.008,-124.289 19.05,-12.826 41.134,-21.485 64.95,-24.689 -0.002,23.346 -0.072,66.432 -0.072,83.293 0,6.946 0.018,7.012 7.279,7.012 11.544,0 32.905,-0.03 32.905,-0.03 14.263,0 29.434,-0.313 44.256,-1.401 23.466,-1.725 44.122,-12.906 58.483,-29.637 14.119,18.555 24.107,40.421 28.597,64.232 -20.609,16.557 -45.337,27.361 -71.959,29.766"
         inkscape:connector-curvature="0" /></clipPath><linearGradient
       id="linearGradient82"
       spreadMethod="pad"
       gradientTransform="matrix(236.40625,0,0,-236.40625,354.60352,582.94531)"
       gradientUnits="userSpaceOnUse"
       y2="0"
       x2="1"
       y1="0"
       x1="0"><stop
         id="stop84"
         offset="0"
         style="stop-opacity:1;stop-color:#8cd7dd" /><stop
         id="stop86"
         offset="0.1160221"
         style="stop-opacity:1;stop-color:#8cd7dd" /><stop
         id="stop88"
         offset="1"
         style="stop-opacity:1;stop-color:#ffffff" /></linearGradient><clipPath
       id="clipPath108"
       clipPathUnits="userSpaceOnUse"><path
         id="path110"
         d="m 451.801,421.493 96.093,0 0,-68.754 -96.093,0 0,68.754 z"
         inkscape:connector-curvature="0" /></clipPath><clipPath
       id="clipPath112"
       clipPathUnits="userSpaceOnUse"><path
         id="path114"
         d="m 522.766,414.763 c -0.221,0.442 -0.429,0.867 -0.628,1.264 -3.069,5.979 -3.007,6.032 -9.117,4.886 -0.439,-0.084 -0.867,-0.159 -1.3,-0.239 -3.056,-0.543 -5.996,-0.928 -8.928,-1.15 -4.669,-0.358 -9.692,-1.219 -15.803,-1.219 -4.562,0 -9.156,-0.089 -13.795,0 -4.838,0.097 -12.008,0 -16.009,0 -2.771,0 -4.407,-0.021 -5.385,-0.524 4.313,-27.304 20.274,-50.736 42.638,-65.042 9.34,0.365 17.946,0.961 23.163,1.935 7.269,1.352 14.812,2.387 22.213,4.54 0,0 2.025,0.561 2.689,0.783 6.451,2.175 6.451,2.268 3.448,8.533 -5.584,11.678 -17.735,35.408 -23.186,46.233"
         inkscape:connector-curvature="0" /></clipPath><linearGradient
       id="linearGradient116"
       spreadMethod="pad"
       gradientTransform="matrix(96.092773,0,0,-96.092773,451.80078,387.11621)"
       gradientUnits="userSpaceOnUse"
       y2="0"
       x2="1"
       y1="0"
       x1="0"><stop
         id="stop118"
         offset="0"
         style="stop-opacity:1;stop-color:#000000" /><stop
         id="stop120"
         offset="0.8839779"
         style="stop-opacity:1;stop-color:#ffffff" /><stop
         id="stop122"
         offset="1"
         style="stop-opacity:1;stop-color:#ffffff" /></linearGradient><clipPath
       id="clipPath142"
       clipPathUnits="userSpaceOnUse"><path
         id="path144"
         d="m 357.316,660.972 292.023,0 0,-228.385 -292.023,0 0,228.385 z"
         inkscape:connector-curvature="0" /></clipPath><clipPath
       id="clipPath146"
       clipPathUnits="userSpaceOnUse"><path
         id="path148"
         d="m 519.051,658.153 c -27.149,2.459 -54.151,2.773 -74.645,2.773 -10.913,0 -21.83,0.102 -32.756,0 -15.448,-0.146 -34.47,0 -50.162,0 -1.978,0 -3.167,-0.008 -4.172,-0.187 C 357.371,600.043 381,544.892 420,504.021 l 0,0.098 c 0,23.169 -0.291,67.023 -0.291,84.059 0,6.946 -0.092,7.028 7.169,7.028 11.545,0 32.851,-0.021 32.851,-0.021 14.263,0 29.407,-0.309 44.228,-1.397 45.237,-3.325 80.079,-41.74 79.35,-87.454 -0.403,-25.434 -11.221,-49.208 -29.73,-65.533 -0.322,-0.287 -0.653,-0.566 -0.984,-0.849 -0.142,-0.119 -0.29,-0.238 -0.436,-0.366 -2.119,-1.859 -3.343,-2.935 -3.815,-3.996 12.08,-1.974 24.478,-3.003 37.117,-3.003 16.189,0 31.984,1.688 47.223,4.892 10.616,20.89 16.474,44.042 16.652,67.697 0.588,77.802 -57.866,146.433 -130.283,152.977"
         inkscape:connector-curvature="0" /></clipPath><linearGradient
       id="linearGradient150"
       spreadMethod="pad"
       gradientTransform="matrix(292.02246,0,0,-292.02246,357.31641,546.7793)"
       gradientUnits="userSpaceOnUse"
       y2="0"
       x2="1"
       y1="0"
       x1="0"><stop
         id="stop152"
         offset="0"
         style="stop-opacity:1;stop-color:#8cd7dd" /><stop
         id="stop154"
         offset="0.1160221"
         style="stop-opacity:1;stop-color:#8cd7dd" /><stop
         id="stop156"
         offset="1"
         style="stop-opacity:1;stop-color:#ffffff" /></linearGradient><clipPath
       id="clipPath252"
       clipPathUnits="userSpaceOnUse"><path
         id="path254"
         d="m 334.422,224.67 68.578,0 0,-12.67 -68.578,0 0,12.67 z"
         inkscape:connector-curvature="0" /></clipPath><clipPath
       id="clipPath256"
       clipPathUnits="userSpaceOnUse"><path
         id="path258"
         d="M 403,224.67 C 347,224.67 334.422,212 334.422,212 l 68.578,0 0,12.67 z"
         inkscape:connector-curvature="0" /></clipPath><linearGradient
       id="linearGradient260"
       spreadMethod="pad"
       gradientTransform="matrix(68.578125,0,0,-68.578125,334.42187,218.33496)"
       gradientUnits="userSpaceOnUse"
       y2="0"
       x2="1"
       y1="0"
       x1="0"><stop
         id="stop262"
         offset="0"
         style="stop-opacity:1;stop-color:#000000" /><stop
         id="stop264"
         offset="0.8839779"
         style="stop-opacity:1;stop-color:#ffffff" /><stop
         id="stop266"
         offset="1"
         style="stop-opacity:1;stop-color:#ffffff" /></linearGradient><clipPath
       id="clipPath286"
       clipPathUnits="userSpaceOnUse"><path
         id="path288"
         d="m 480.257,224.67 136.743,0 0,-12.67 -136.743,0 0,12.67 z"
         inkscape:connector-curvature="0" /></clipPath><clipPath
       id="clipPath290"
       clipPathUnits="userSpaceOnUse"><path
         id="path292"
         d="M 617,224.67 C 488,224.67 480.257,212 480.257,212 l 136.743,0 0,12.67 z"
         inkscape:connector-curvature="0" /></clipPath><linearGradient
       id="linearGradient294"
       spreadMethod="pad"
       gradientTransform="matrix(136.74316,0,0,-136.74316,480.25684,218.33496)"
       gradientUnits="userSpaceOnUse"
       y2="0"
       x2="1"
       y1="0"
       x1="0"><stop
         id="stop296"
         offset="0"
         style="stop-opacity:1;stop-color:#000000" /><stop
         id="stop298"
         offset="0.8839779"
         style="stop-opacity:1;stop-color:#ffffff" /><stop
         id="stop300"
         offset="1"
         style="stop-opacity:1;stop-color:#ffffff" /></linearGradient><clipPath
       id="clipPath320"
       clipPathUnits="userSpaceOnUse"><path
         id="path322"
         d="m 647.329,224.67 101.671,0 0,-12.67 -101.671,0 0,12.67 z"
         inkscape:connector-curvature="0" /></clipPath><clipPath
       id="clipPath324"
       clipPathUnits="userSpaceOnUse"><path
         id="path326"
         d="M 749,224.67 C 652,224.67 647.329,212 647.329,212 l 101.671,0 0,12.67 z"
         inkscape:connector-curvature="0" /></clipPath><linearGradient
       id="linearGradient328"
       spreadMethod="pad"
       gradientTransform="matrix(101.6709,0,0,-101.6709,647.3291,218.33496)"
       gradientUnits="userSpaceOnUse"
       y2="0"
       x2="1"
       y1="0"
       x1="0"><stop
         id="stop330"
         offset="0"
         style="stop-opacity:1;stop-color:#000000" /><stop
         id="stop332"
         offset="0.8839779"
         style="stop-opacity:1;stop-color:#ffffff" /><stop
         id="stop334"
         offset="1"
         style="stop-opacity:1;stop-color:#ffffff" /></linearGradient><radialGradient
       inkscape:collect="always"
       xlink:href="#linearGradient5216"
       id="radialGradient5238"
       cx="1002.4593"
       cy="1566.1564"
       fx="1002.4593"
       fy="1566.1564"
       r="1024"
       gradientUnits="userSpaceOnUse"
       gradientTransform="matrix(1.3186551,-0.00262071,0.00264292,1.329837,-325.85566,-508.28392)" /><filter
       style="color-interpolation-filters:sRGB;"
       inkscape:label="Drop Shadow"
       id="filter5724"><feFlood
         flood-opacity="0.498039"
         flood-color="rgb(0,0,0)"
         result="flood"
         id="feFlood5726" /><feComposite
         in="flood"
         in2="SourceGraphic"
         operator="in"
         result="composite1"
         id="feComposite5728" /><feGaussianBlur
         in="composite1"
         stdDeviation="0.1"
         result="blur"
         id="feGaussianBlur5730" /><feOffset
         dx="2"
         dy="2"
         result="offset"
         id="feOffset5732" /><feComposite
         in="SourceGraphic"
         in2="offset"
         operator="over"
         result="fbSourceGraphic"
         id="feComposite5734" /><feColorMatrix
         result="fbSourceGraphicAlpha"
         in="fbSourceGraphic"
         values="0 0 0 -1 0 0 0 0 -1 0 0 0 0 -1 0 0 0 0 1 0"
         id="feColorMatrix5736" /><feFlood
         id="feFlood5738"
         flood-opacity="0.498039"
         flood-color="rgb(0,0,0)"
         result="flood"
         in="fbSourceGraphic" /><feComposite
         id="feComposite5740"
         in2="fbSourceGraphic"
         in="flood"
         operator="in"
         result="composite1" /><feGaussianBlur
         id="feGaussianBlur5742"
         in="composite1"
         stdDeviation="0.1"
         result="blur" /><feOffset
         id="feOffset5744"
         dx="2"
         dy="2"
         result="offset" /><feComposite
         id="feComposite5746"
         in2="offset"
         in="fbSourceGraphic"
         operator="over"
         result="composite2" /></filter></defs><g
     inkscape:groupmode="layer"
     id="layer1"
     inkscape:label="Layer 1"
     style="display:inline"><rect
       style="opacity:1;fill:url(#radialGradient5238);fill-opacity:1"
       id="rect5093"
       width="2048"
       height="2048"
       x="0"
       y="0" /></g><g
     inkscape:groupmode="layer"
     id="layer2"
     inkscape:label="Layer 2"
     style="display:inline"><g
       style="filter:url(#filter5724)"
       id="g12"
       transform="matrix(1.7974932,0,0,-1.7974932,118.46743,1712.0915)"><g
         id="g14"
         clip-path="url(#clipPath16)"><g
           id="g20"
           transform="translate(457.3613,449)"><path
             inkscape:connector-curvature="0"
             d="m 0,0 1.207,0 c 4.395,0 8.618,0.191 12.734,0.161 3.931,-0.026 7.76,0.08 11.54,0.08 4.749,0 9.406,-0.093 14.07,0.04 27.627,0.783 51.295,21.328 55.049,47.765 4.426,31.163 -12.695,58.317 -40.709,64.548 -11.996,2.666 -24.408,2.777 -36.412,2.896 -5.262,0.054 -17.131,-0.006 -17.848,-0.006 -6.765,0 -6.992,-0.121 -6.992,-6.948 l 0,-101.117 C -7.361,0.415 -6.941,0 0,0"
             style="fill:#b4bdc0;fill-opacity:1;fill-rule:nonzero;stroke:none"
             id="path22" /></g><g
           id="g24"><g
             id="g26" /><g
             id="g44"><g
               clip-path="url(#clipPath28)"
               id="g46"
               style="opacity:0.10000598"><g
                 id="g48"><g
                   clip-path="url(#clipPath32)"
                   id="g50"><g
                     id="g52"><g
                       id="g54"><path
                         inkscape:connector-curvature="0"
                         d="m 452.113,449.496 c 1.03,-0.434 2.659,-0.496 5.248,-0.496 l 1.207,0 c 4.395,0 8.619,0.191 12.735,0.161 3.93,-0.026 7.759,0.08 11.54,0.08 4.749,0 9.405,-0.092 14.069,0.04 27.627,0.783 51.295,21.328 55.049,47.765 1.544,10.87 0.459,21.248 -2.787,30.424 -1.227,0.048 -2.457,0.076 -3.695,0.076 -46.65,0 -85.434,-33.681 -93.366,-78.05"
                         style="fill:url(#linearGradient36);stroke:none"
                         id="path56" /></g></g></g></g></g></g></g><g
           id="g58"
           transform="translate(519.0518,658.1533)"><path
             inkscape:connector-curvature="0"
             d="m 0,0 c -27.149,2.459 -54.151,2.772 -74.646,2.772 -10.913,0 -21.829,0.103 -32.754,0 -15.45,-0.145 -34.472,0 -50.163,0 -6.841,0 -6.885,-0.087 -6.885,-7.03 0,-15.621 0.013,-160.555 0.013,-196.644 0,-7.172 0.075,-7.251 7.07,-7.251 l 50.848,0 c 6.973,0 7.018,0.065 7.018,7.065 0,11.743 0.009,47.019 0.009,47.019 0,23.169 -0.072,67.04 -0.072,84.076 0,6.946 0.018,7.037 7.279,7.037 11.545,0 32.905,-0.017 32.905,-0.017 14.264,0 29.435,-0.307 44.256,-1.394 45.237,-3.325 80.093,-41.739 79.363,-87.453 -0.402,-25.434 -11.213,-49.208 -29.722,-65.533 -0.323,-0.287 -0.65,-0.566 -0.982,-0.848 -0.141,-0.119 -0.287,-0.238 -0.433,-0.366 -5.027,-4.41 -5.027,-4.41 -1.861,-10.273 0.114,-0.212 0.433,-0.866 0.433,-0.866 l 22.722,-45.285 c 0,0 0.35,-0.753 0.496,-0.987 3.683,-5.973 3.771,-5.88 9.113,-2.065 0.301,0.217 1.202,0.88 1.202,0.88 l 0.686,0.504 c 39.958,29.107 64.024,75.348 64.387,123.681 C 130.87,-75.176 72.416,-6.544 0,0"
             style="fill:#01a799;fill-opacity:1;fill-rule:nonzero;stroke:none"
             id="path60" /></g><g
           id="g62"
           transform="translate(420.2256,354.5889)"><path
             inkscape:connector-curvature="0"
             d="m 0,0 c 0,-1.217 -0.971,-2.201 -2.171,-2.201 l -61.84,0 c -1.197,0 -2.171,0.984 -2.171,2.201 l 0,62.221 c 0,1.217 0.974,2.203 2.171,2.203 l 61.84,0 C -0.971,64.424 0,63.438 0,62.221 L 0,0 Z"
             style="fill:#01a698;fill-opacity:1;fill-rule:nonzero;stroke:none"
             id="path64" /></g><g
           id="g66"
           transform="translate(522.7656,414.7627)"><path
             inkscape:connector-curvature="0"
             d="m 0,0 c -0.221,0.442 -0.429,0.866 -0.628,1.265 -3.068,5.978 -3.007,6.031 -9.117,4.885 -0.438,-0.084 -0.866,-0.159 -1.3,-0.239 -3.056,-0.543 -5.996,-0.928 -8.928,-1.149 -4.669,-0.359 -9.692,-1.22 -15.802,-1.22 -4.563,0 -9.158,-0.089 -13.795,0 -4.838,0.098 -12.186,0 -16.188,0 -6.707,0 -7.008,-0.071 -7.008,-7.013 l 0,-52.038 c 0,-7.039 0.177,-7.088 7.079,-7.088 14.441,0 47.652,0.124 60.435,2.508 7.269,1.353 14.856,2.387 22.258,4.54 0,0 2.047,0.562 2.71,0.783 6.451,2.175 6.462,2.268 3.46,8.534 C 17.591,-34.555 5.451,-10.824 0,0"
             style="fill:#b4bdc0;fill-opacity:1;fill-rule:nonzero;stroke:none"
             id="path68" /></g><g
           id="g70"><g
             id="g72" /><g
             id="g90"><g
               clip-path="url(#clipPath74)"
               id="g92"
               style="opacity:0.14999402"><g
                 id="g94"><g
                   clip-path="url(#clipPath78)"
                   id="g96"><g
                     id="g98"><g
                       id="g100"><path
                         inkscape:connector-curvature="0"
                         d="m 519.051,658.153 c -27.149,2.459 -54.151,2.773 -74.645,2.773 -10.913,0 -21.83,0.102 -32.756,0 -15.448,-0.146 -34.47,0 -50.162,0 -6.841,0 -6.884,-0.088 -6.884,-7.03 0,-9.872 0.004,-71.298 0.008,-124.289 19.05,-12.826 41.134,-21.485 64.95,-24.689 -0.002,23.346 -0.072,66.432 -0.072,83.293 0,6.946 0.018,7.012 7.279,7.012 11.544,0 32.905,-0.03 32.905,-0.03 14.263,0 29.434,-0.313 44.256,-1.401 23.466,-1.725 44.122,-12.906 58.483,-29.637 14.119,18.555 24.107,40.421 28.597,64.232 -20.609,16.557 -45.337,27.361 -71.959,29.766"
                         style="fill:url(#linearGradient82);stroke:none"
                         id="path102" /></g></g></g></g></g></g></g><g
           id="g104"><g
             id="g106" /><g
             id="g124"><g
               clip-path="url(#clipPath108)"
               id="g126"
               style="opacity:0.10000598"><g
                 id="g128"><g
                   clip-path="url(#clipPath112)"
                   id="g130"><g
                     id="g132"><g
                       id="g134"><path
                         inkscape:connector-curvature="0"
                         d="m 522.766,414.763 c -0.221,0.442 -0.429,0.867 -0.628,1.264 -3.069,5.979 -3.007,6.032 -9.117,4.886 -0.439,-0.084 -0.867,-0.159 -1.3,-0.239 -3.056,-0.543 -5.996,-0.928 -8.928,-1.15 -4.669,-0.358 -9.692,-1.219 -15.803,-1.219 -4.562,0 -9.156,-0.089 -13.795,0 -4.838,0.097 -12.008,0 -16.009,0 -2.771,0 -4.407,-0.021 -5.385,-0.524 4.313,-27.304 20.274,-50.736 42.638,-65.042 9.34,0.365 17.946,0.961 23.163,1.935 7.269,1.352 14.812,2.387 22.213,4.54 0,0 2.025,0.561 2.689,0.783 6.451,2.175 6.451,2.268 3.448,8.533 -5.584,11.678 -17.735,35.408 -23.186,46.233"
                         style="fill:url(#linearGradient116);stroke:none"
                         id="path136" /></g></g></g></g></g></g></g><g
           id="g138"><g
             id="g140" /><g
             id="g158"><g
               clip-path="url(#clipPath142)"
               id="g160"
               style="opacity:0.14999402"><g
                 id="g162"><g
                   clip-path="url(#clipPath146)"
                   id="g164"><g
                     id="g166"><g
                       id="g168"><path
                         inkscape:connector-curvature="0"
                         d="m 519.051,658.153 c -27.149,2.459 -54.151,2.773 -74.645,2.773 -10.913,0 -21.83,0.102 -32.756,0 -15.448,-0.146 -34.47,0 -50.162,0 -1.978,0 -3.167,-0.008 -4.172,-0.187 C 357.371,600.043 381,544.892 420,504.021 l 0,0.098 c 0,23.169 -0.291,67.023 -0.291,84.059 0,6.946 -0.092,7.028 7.169,7.028 11.545,0 32.851,-0.021 32.851,-0.021 14.263,0 29.407,-0.309 44.228,-1.397 45.237,-3.325 80.079,-41.74 79.35,-87.454 -0.403,-25.434 -11.221,-49.208 -29.73,-65.533 -0.322,-0.287 -0.653,-0.566 -0.984,-0.849 -0.142,-0.119 -0.29,-0.238 -0.436,-0.366 -2.119,-1.859 -3.343,-2.935 -3.815,-3.996 12.08,-1.974 24.478,-3.003 37.117,-3.003 16.189,0 31.984,1.688 47.223,4.892 10.616,20.89 16.474,44.042 16.652,67.697 0.588,77.802 -57.866,146.433 -130.283,152.977"
                         style="fill:url(#linearGradient150);stroke:none"
                         id="path170" /></g></g></g></g></g></g></g><g
           id="g172"
           transform="translate(390.6641,149.6406)"><path
             inkscape:connector-curvature="0"
             d="m 0,0 c 3.815,0 7.099,-2.929 7.099,-6.745 0,-3.816 -3.195,-6.922 -7.099,-6.922 -3.728,0 -7.1,2.929 -7.1,6.745 C -7.1,-3.106 -3.905,0 0,0"
             style="fill:#b4bdc0;fill-opacity:1;fill-rule:nonzero;stroke:none"
             id="path174" /></g><g
           id="g176"
           transform="translate(305.3555,293.5635)"><path
             inkscape:connector-curvature="0"
             d="m 0,0 c -3.81,4.952 -10.095,7.714 -16.285,7.714 -15.143,0 -25.143,-12.095 -25.143,-27.428 0,-14.19 9.429,-26.285 25.143,-26.285 7.714,0 13.618,3.429 17.618,9.048 l 7.714,-5.81 c -2,-2.761 -10.095,-11.809 -25.524,-11.809 -21.427,0 -34.665,17.904 -34.665,34.856 0,20.951 14.381,35.998 35.142,35.998 8.857,0 18.19,-3.333 23.619,-10.475 L 0,0 Z"
             style="fill:#24b3a7;fill-opacity:1;fill-rule:nonzero;stroke:none"
             id="path178" /></g><path
           inkscape:connector-curvature="0"
           d="m 346.782,285.849 8.571,0 0,-45.141 -8.571,0 0,45.141 z m 7.905,22.285 12.19,0 -14.19,-13.714 -7.905,0 9.905,13.714 z"
           style="fill:#24b3a7;fill-opacity:1;fill-rule:nonzero;stroke:none"
           id="path180" /><g
           id="g182"
           transform="translate(368.9717,285.8486)"><path
             inkscape:connector-curvature="0"
             d="m 0,0 8.571,0 0,-6.952 0.191,0 c 2.19,4.762 7.904,8.096 14.856,8.096 8.762,0 16.381,-5.239 16.381,-17.238 l 0,-29.047 -8.572,0 0,26.666 c 0,8.476 -4.857,11.619 -10.285,11.619 -7.143,0 -12.571,-4.572 -12.571,-15.047 l 0,-23.238 -8.571,0 L 0,0 Z"
             style="fill:#24b3a7;fill-opacity:1;fill-rule:nonzero;stroke:none"
             id="path184" /></g><path
           inkscape:connector-curvature="0"
           d="m 422.59,285.849 8.571,0 0,-45.141 -8.571,0 0,45.141 z m 4.285,22.475 c 3.429,0 6.285,-2.857 6.285,-6.285 0,-3.429 -2.856,-6.286 -6.285,-6.286 -3.428,0 -6.285,2.857 -6.285,6.286 0,3.428 2.857,6.285 6.285,6.285"
           style="fill:#24b3a7;fill-opacity:1;fill-rule:nonzero;stroke:none"
           id="path186" /><g
           id="g188"
           transform="translate(477.0635,273.8496)"><path
             inkscape:connector-curvature="0"
             d="m 0,0 c -3.143,3.333 -6.476,5.047 -11.237,5.047 -9.333,0 -14.096,-7.524 -14.096,-15.999 0,-8.476 5.715,-15.333 14.571,-15.333 4.762,0 8.095,1.715 10.952,5.048 l 6.096,-6.095 c -4.476,-4.953 -10.571,-6.953 -17.142,-6.953 -13.905,0 -23.619,9.619 -23.619,23.523 0,13.905 9.524,23.809 23.619,23.809 6.571,0 12.856,-2.285 17.332,-7.143 L 0,0 Z"
             style="fill:#24b3a7;fill-opacity:1;fill-rule:nonzero;stroke:none"
             id="path190" /></g><g
           id="g192"
           transform="translate(515.0625,262.4219)"><path
             inkscape:connector-curvature="0"
             d="m 0,0 c -8.096,0 -17.999,-1.43 -17.999,-8.667 0,-5.143 3.809,-7.333 9.714,-7.333 9.523,0 12.856,7.047 12.856,13.143 L 4.571,0 0,0 Z m -24.189,17.903 c 4.761,4.476 11.618,6.667 17.903,6.667 13.333,0 18.856,-7.238 18.856,-15.048 l 0,-23.046 c 0,-3.143 0.096,-5.809 0.382,-8.19 l -7.619,0 c -0.19,2.285 -0.286,4.571 -0.286,6.857 l -0.19,0 c -3.81,-5.809 -8.953,-8 -15.809,-8 -8.381,0 -15.618,4.761 -15.618,13.523 0,11.619 11.142,15.619 24.855,15.619 l 6.286,0 0,1.904 c 0,4.667 -3.428,9.524 -10.761,9.524 -6.572,0 -9.714,-2.762 -12.857,-5.143 l -5.142,5.333 z"
             style="fill:#24b3a7;fill-opacity:1;fill-rule:nonzero;stroke:none"
             id="path194" /></g><g
           id="g196"
           transform="translate(568.7764,308.1338)"><path
             inkscape:connector-curvature="0"
             d="m 0,0 42.379,0 0,-8.571 -33.237,0 0,-21.142 30.952,0 0,-8.571 -30.952,0 0,-29.142 -9.142,0 L 0,0 Z"
             style="fill:#24b3a7;fill-opacity:1;fill-rule:nonzero;stroke:none"
             id="path198" /></g><g
           id="g200"
           transform="translate(643.1543,308.1338)"><path
             inkscape:connector-curvature="0"
             d="M 0,0 12.189,0 -2,-13.714 l -7.904,0 L 0,0 Z m 2.477,-45.712 c -8.096,0 -18,-1.43 -18,-8.667 0,-5.142 3.809,-7.333 9.713,-7.333 9.524,0 12.857,7.047 12.857,13.143 l 0,2.857 -4.57,0 z m -24.191,17.903 c 4.762,4.476 11.618,6.667 17.904,6.667 13.333,0 18.857,-7.238 18.857,-15.047 l 0,-23.047 c 0,-3.143 0.096,-5.809 0.381,-8.19 l -7.619,0 c -0.191,2.285 -0.286,4.572 -0.286,6.857 l -0.19,0 c -3.81,-5.809 -8.952,-8 -15.81,-8 -8.379,0 -15.618,4.761 -15.618,13.523 0,11.619 11.143,15.619 24.857,15.619 l 6.285,0 0,1.905 c 0,4.667 -3.428,9.523 -10.762,9.523 -6.57,0 -9.713,-2.762 -12.856,-5.143 l -5.143,5.333 z"
             style="fill:#24b3a7;fill-opacity:1;fill-rule:nonzero;stroke:none"
             id="path202" /></g><g
           id="g204"
           transform="translate(702.9629,273.8496)"><path
             inkscape:connector-curvature="0"
             d="m 0,0 c -3.144,3.333 -6.477,5.047 -11.238,5.047 -9.333,0 -14.095,-7.524 -14.095,-15.999 0,-8.476 5.714,-15.333 14.571,-15.333 4.762,0 8.095,1.715 10.951,5.048 l 6.096,-6.095 c -4.476,-4.953 -10.571,-6.953 -17.142,-6.953 -13.905,0 -23.619,9.619 -23.619,23.523 0,13.905 9.525,23.809 23.619,23.809 6.571,0 12.856,-2.285 17.333,-7.143 L 0,0 Z"
             style="fill:#24b3a7;fill-opacity:1;fill-rule:nonzero;stroke:none"
             id="path206" /></g><path
           inkscape:connector-curvature="0"
           d="m 717.248,285.849 8.57,0 0,-45.141 -8.57,0 0,45.141 z m 4.285,22.475 c 3.429,0 6.285,-2.857 6.285,-6.285 0,-3.429 -2.856,-6.286 -6.285,-6.286 -3.429,0 -6.285,2.857 -6.285,6.286 0,3.428 2.856,6.285 6.285,6.285"
           style="fill:#24b3a7;fill-opacity:1;fill-rule:nonzero;stroke:none"
           id="path208" /><g
           id="g210"
           transform="translate(284.4004,148.1445)"><path
             inkscape:connector-curvature="0"
             d="M 0,0 C 16.664,0 35.378,6.814 35.378,31.297 35.378,57.318 16.664,62.85 0,62.85 l -13.586,0 0,-62.85 L 0,0 Z m -29.59,76.816 32.153,0 c 23.714,0 50.12,-11.295 50.12,-45.39 0,-31.79 -26.406,-45.392 -50.12,-45.392 l -32.153,0 0,90.782 z"
             style="fill:#24b3a7;fill-opacity:1;fill-rule:nonzero;stroke:none"
             id="path212" /></g><g
           id="g214"
           transform="translate(349.376,195.5732)"><path
             inkscape:connector-curvature="0"
             d="m 0,0 14.839,0 0,-10.185 0.171,0 c 3.333,6.984 9.864,12.081 17.94,12.081 1.154,0 2.839,-0.096 3.712,-0.353 l 0,-14.1 c -2.037,0.513 -3.313,0.641 -4.724,0.641 -13.843,0 -16.517,-12.05 -16.517,-16.536 l 0,-32.943 L 0,-61.395 0,0 Z"
             style="fill:#24b3a7;fill-opacity:1;fill-rule:nonzero;stroke:none"
             id="path216" /></g><g
           id="g218"
           transform="translate(439.7773,185.9707)"><path
             inkscape:connector-curvature="0"
             d="m 0,0 c 9.102,0 19.484,2.082 19.484,13.106 0,9.871 -9.742,12.208 -18.074,12.208 l -14.704,0 L -13.294,0 0,0 Z m -29.298,38.99 31.478,0 c 17.048,0 33.455,-6.807 33.455,-26.035 0,-13.075 -8.075,-21.671 -20.766,-24.49 l 24.227,-40.257 -19.484,0 -21.022,38.408 -11.884,0 0,-38.408 -16.004,0 0,90.782 z"
             style="fill:#24b3a7;fill-opacity:1;fill-rule:nonzero;stroke:none"
             id="path220" /></g><g
           id="g222"
           transform="translate(319.2959,225)"><path
             inkscape:connector-curvature="0"
             d="M 0,0 C 2.104,-1 4.093,-2.496 5.95,-3.871 9.485,-6.491 12.55,-10 15.126,-13 l 68.578,0 0,13 L 0,0 Z"
             style="fill:#b4bdc0;fill-opacity:1;fill-rule:nonzero;stroke:none"
             id="path224" /></g><g
           id="g226"
           transform="translate(516.0459,145.2021)"><path
             inkscape:connector-curvature="0"
             d="m 0,0 c 12.178,0 17.817,10.383 17.817,19.996 0,9.614 -5.639,19.74 -17.817,19.74 -12.177,0 -17.817,-10.126 -17.817,-19.74 C -17.817,10.383 -12.177,0 0,0 m 0,52.299 c 18.587,0 33.456,-12.946 33.456,-32.303 0,-19.355 -14.869,-32.814 -33.456,-32.814 -18.586,0 -33.455,13.459 -33.455,32.814 0,19.357 14.869,32.303 33.455,32.303"
             style="fill:#24b3a7;fill-opacity:1;fill-rule:nonzero;stroke:none"
             id="path228" /></g><g
           id="g230"
           transform="translate(603.8496,178.6582)"><path
             inkscape:connector-curvature="0"
             d="m 0,0 c -2.435,3.461 -7.69,6.024 -12.689,6.024 -11.281,0 -16.92,-10.127 -16.92,-19.74 0,-9.614 5.767,-19.74 17.432,-19.74 4.743,0 9.998,1.923 12.947,5.512 l 9.614,-9.742 c -5.128,-5.512 -13.588,-8.588 -22.689,-8.588 -18.202,0 -33.328,12.049 -33.328,32.558 0,19.996 14.869,32.559 32.944,32.559 8.972,0 18.33,-3.589 23.201,-9.614 L 0,0 Z"
             style="fill:#24b3a7;fill-opacity:1;fill-rule:nonzero;stroke:none"
             id="path232" /></g><g
           id="g234"
           transform="translate(734.6201,162.1113)"><path
             inkscape:connector-curvature="0"
             d="m 0,0 -3.485,0 c -9.742,0 -23.457,-1.084 -23.457,-10.185 0,-5.896 5.523,-7.656 10.779,-7.656 C -5.651,-17.841 0,-11.781 0,-2.04 L 0,0 Z m 0.291,-20.076 -0.443,0 c -3.076,-5.529 -10.383,-9.376 -19.099,-9.376 -9.87,0 -23.062,4.733 -23.062,19.09 0,18.33 23.109,20.884 42.313,20.884 l 0,1.539 c 0,7.562 -6.421,11.279 -14.112,11.279 -6.537,0 -12.825,-3.076 -16.798,-7.05 l -7.95,9.357 c 6.922,6.41 16.641,9.743 25.999,9.743 22.048,0 27.409,-13.588 27.409,-25.894 l 0,-37.429 -14.257,0 0,7.857 z"
             style="fill:#24b3a7;fill-opacity:1;fill-rule:nonzero;stroke:none"
             id="path236" /></g><g
           id="g238"
           transform="translate(658.4473,197.4414)"><path
             inkscape:connector-curvature="0"
             d="m 0,0 c -9.101,0 -15.758,-5.441 -18.193,-10.441 l -0.254,0 0,38 -15,0 0,-91 15,0 0,33.762 c 0,8.203 4.796,16.535 14.538,16.535 9.87,0 11.462,-8.972 11.462,-16.279 l 0,-34.018 15,0 0,38.633 C 22.553,-12.246 16.023,0 0,0"
             style="fill:#24b3a7;fill-opacity:1;fill-rule:nonzero;stroke:none"
             id="path240" /></g><g
           id="g242"
           transform="translate(618,224)"><path
             inkscape:connector-curvature="0"
             d="m 0,0 -148.086,0 c 4.695,-2 8.203,-7 10.343,-12 L 0,-12 0,0 Z"
             style="fill:#b4bdc0;fill-opacity:1;fill-rule:nonzero;stroke:none"
             id="path244" /></g><path
           inkscape:connector-curvature="0"
           d="m 647,212 103,0 0,12 -103,0 0,-12 z"
           style="fill:#b4bdc0;fill-opacity:1;fill-rule:nonzero;stroke:none"
           id="path246" /><g
           id="g248"><g
             id="g250" /><g
             id="g268"><g
               clip-path="url(#clipPath252)"
               id="g270"
               style="opacity:0.10000598"><g
                 id="g272"><g
                   clip-path="url(#clipPath256)"
                   id="g274"><g
                     id="g276"><g
                       id="g278"><path
                         inkscape:connector-curvature="0"
                         d="M 403,224.67 C 347,224.67 334.422,212 334.422,212 l 68.578,0 0,12.67 z"
                         style="fill:url(#linearGradient260);stroke:none"
                         id="path280" /></g></g></g></g></g></g></g><g
           id="g282"><g
             id="g284" /><g
             id="g302"><g
               clip-path="url(#clipPath286)"
               id="g304"
               style="opacity:0.10000598"><g
                 id="g306"><g
                   clip-path="url(#clipPath290)"
                   id="g308"><g
                     id="g310"><g
                       id="g312"><path
                         inkscape:connector-curvature="0"
                         d="M 617,224.67 C 488,224.67 480.257,212 480.257,212 l 136.743,0 0,12.67 z"
                         style="fill:url(#linearGradient294);stroke:none"
                         id="path314" /></g></g></g></g></g></g></g><g
           id="g316"><g
             id="g318" /><g
             id="g336"><g
               clip-path="url(#clipPath320)"
               id="g338"
               style="opacity:0.10000598"><g
                 id="g340"><g
                   clip-path="url(#clipPath324)"
                   id="g342"><g
                     id="g344"><g
                       id="g346"><path
                         inkscape:connector-curvature="0"
                         d="M 749,224.67 C 652,224.67 647.329,212 647.329,212 l 101.671,0 0,12.67 z"
                         style="fill:url(#linearGradient328);stroke:none"
                         id="path348" /></g></g></g></g></g></g></g><path
           inkscape:connector-curvature="0"
           d="m 324,241 9,0 0,67 -9,0 0,-67 z"
           style="fill:#24b3a7;fill-opacity:1;fill-rule:nonzero;stroke:none"
           id="path350" /><path
           inkscape:connector-curvature="0"
           d="m 740,241 9,0 0,67 -9,0 0,-67 z"
           style="fill:#24b3a7;fill-opacity:1;fill-rule:nonzero;stroke:none"
           id="path352" /></g></g></g><g
     inkscape:groupmode="layer"
     id="layer3"
     inkscape:label="Layer 3"
     style="display:inline"><text
       style="font-style:italic;font-variant:normal;font-weight:normal;font-stretch:normal;font-size:33.67107773px;font-family:'AvenirNext LT Pro Regular';-inkscape-font-specification:AvenirNextLTPro-It;writing-mode:lr-tb;display:inline;fill:#b4bdc0;fill-opacity:1;fill-rule:nonzero;stroke:none"
       id="text354-3"
       x="581.01068"
       y="1523.7247"><tspan
         x="581.01068 610.91058 630.50714 655.82776 674.88556 683.37073 702.42853 725.89728 751.21796 774.07727 782.56238 791.38416 816.70477 825.18988 849.09637 877.24536 897.48175 917.07831 945.22736 965.4635 985.06012 993.54523 1012.6031 1036.0719 1061.3926"
         y="1523.7247"
         id="tspan356-6">MENS SANA IN CORPORE SANO</tspan></text>
<text
       style="font-variant:normal;font-weight:600;font-stretch:normal;font-size:33.67107773px;font-family:'AvenirNext LT Pro Regular';-inkscape-font-specification:AvenirNextLTPro-Demi;writing-mode:lr-tb;display:inline;fill:#b4bdc0;fill-opacity:1;fill-rule:nonzero;stroke:none"
       id="text358-7"
       x="1098.03"
       y="1523.7247"><tspan
         x="1098.03 1129.0747 1149.6815 1175.4735 1185.0361 1208.5387 1218.1011 1244.4318 1267.6649 1276.15 1285.7125 1312.0432 1331.2358 1351.8427 1377.9375 1399.1842 1423.0232 1448.0105"
         y="1523.7247"
         id="tspan360-5">MEDICINA INTEGRADA</tspan></text>
</g></svg>